<svg baseProfile="tiny" xmlns="http://www.w3.org/2000/svg" viewBox="0 0 72 72"><path d="M72 64c0 4.418-3.582 8-8 8h-56c-4.418 0-8-3.582-8-8v-56c0-4.418 3.582-8 8-8h56c4.418 0 8 3.582 8 8v56z"/><g fill="#fff"><path d="M33.565 45.258s-.472-.013-.472.521v2.57h10.765s.473.013.473-.521l.001-18.832-10.766-.008s-.472-.013-.472.521v13.895h7.072v1.854h-6.601zm6.128-4.949h-2.521v-7.712c0-.533.473-.521.473-.521h2.521v7.711c0 .534-.472.522-.473.522zM27.968 23.651s-.473-.013-.473.52v2.571h3.693s.472.012.472-.521l.003-2.57h-3.695zM46.233 45.258s-.472-.013-.472.521v2.57h10.766s.472.013.472-.521l.001-18.832-10.767-.009s-.472-.013-.472.521v13.895h7.073v1.854h-6.601zm6.13-4.949h-2.521v-7.712c0-.533.473-.521.473-.521h2.522v7.711c-.001.534-.474.522-.474.522zM22.072 24.171v4.816h-6.6s-.472-.013-.472.521v13.895h10.765s.471.012.471-.521c0-.489.002-19.231.004-19.231h-3.695s-.473-.012-.473.52zm.003 15.617c0 .533-.473.521-.473.521h-2.521v-7.711c0-.533.473-.521.473-.521h2.521v7.711zM27.496 29.506v13.896h3.69s.472.013.472-.519c0-.108.001-13.896.003-13.896h-3.693c.001 0-.472-.012-.472.519z"/></g></svg>