<svg height="472pt" viewBox="0 -6 472 472" width="472pt" xmlns="http://www.w3.org/2000/svg"><path d="m424.960938 124.480469h-336.960938l32 192h320l32-192zm0 0" fill="#006df0"/><path d="m442.640625 300.480469-2.640625 16h-320l-32-192h26.640625l27.128906 162.632812c1.285157 7.714844 7.960938 13.367188 15.78125 13.367188zm0 0" fill="#005ece"/><g fill="#f1f2f2"><path d="m144 164.480469h272v16h-272zm0 0"/><path d="m160 212.480469h240v16h-240zm0 0"/><path d="m176 260.480469h208v16h-208zm0 0"/></g><path d="m240 404.480469h80v16h-80zm0 0" fill="#ed1c24"/><path d="m91.089844 400.6875c-1.488282-2.347656-1.625-5.308594-.355469-7.785156l37.378906-76.421875-32.226562-193.320313-13.765625-82.625c-1.902344-11.585937-11.929688-20.085937-23.671875-20.054687h-58.449219v16h58.449219c3.910156 0 7.246093 2.828125 7.886719 6.6875l13.777343 82.632812 31.566407 189.429688-35.253907 70.511719c-3.722656 7.441406-3.328125 16.277343 1.046875 23.355468 4.371094 7.074219 12.097656 11.382813 20.414063 11.382813h62.113281v-16h-62.113281c-2.777344.023437-5.359375-1.417969-6.796875-3.792969zm0 0" fill="#ed1c24"/><path d="m300.480469 0-124.480469 124.480469h248.960938zm0 0" fill="#ffcd00"/><path d="m248 412.480469c0 26.507812-21.492188 48-48 48s-48-21.492188-48-48c0-26.511719 21.492188-48 48-48s48 21.488281 48 48zm0 0" fill="#00479b"/><path d="m408 412.480469c0 26.507812-21.492188 48-48 48s-48-21.492188-48-48c0-26.511719 21.492188-48 48-48s48 21.488281 48 48zm0 0" fill="#00479b"/><path d="m216 412.480469c0 8.835937-7.164062 16-16 16s-16-7.164063-16-16c0-8.835938 7.164062-16 16-16s16 7.164062 16 16zm0 0" fill="#ed1c24"/><path d="m376 412.480469c0 8.835937-7.164062 16-16 16s-16-7.164063-16-16c0-8.835938 7.164062-16 16-16s16 7.164062 16 16zm0 0" fill="#ed1c24"/></svg>