<svg baseProfile="tiny" xmlns="http://www.w3.org/2000/svg" viewBox="0 0 72 72"><path fill="#E31A22" d="M72 64c0 4.418-3.582 8-8 8h-56c-4.418 0-8-3.582-8-8v-56c0-4.418 3.582-8 8-8h56c4.418 0 8 3.582 8 8v56z"/><path fill="#fff" d="M48.615 48.373c-4.375-.017-6.705-2.156-8.325-5.927l-.463-1.029-3.994-9.107c-1.325-3.222-4.611-5.4-8.32-5.4-5.018 0-9.089 4.071-9.089 9.091 0 5.022 4.071 9.091 9.089 9.091 3.5 0 6.544-1.979 8.062-4.881l1.615 3.725c-2.293 2.795-5.778 4.577-9.678 4.577-6.91.004-12.512-5.595-12.512-12.51 0-6.911 5.602-12.517 12.514-12.517 5.215 0 9.426 2.785 11.567 7.721.163.383 2.262 5.295 4.094 9.476 1.136 2.587 2.103 4.303 5.24 4.409 3.083.106 5.199-1.77 5.199-4.143 0-2.317-1.613-2.874-4.337-3.78-4.897-1.612-7.424-3.234-7.424-7.116 0-3.786 2.578-6.313 6.764-6.313 2.728 0 4.696 1.214 6.06 3.632l-2.676 1.368c-1.008-1.411-2.121-1.969-3.534-1.969-1.965 0-3.368 1.368-3.368 3.185 0 2.581 2.308 2.971 5.537 4.03 4.344 1.416 6.364 3.034 6.364 7.069 0 4.238-3.637 7.325-8.385 7.318z"/></svg>