<svg baseProfile="tiny" xmlns="http://www.w3.org/2000/svg" viewBox="0 0 72 72"><path fill="#020202" d="M72 64c0 4.418-3.582 8-8 8h-56c-4.418 0-8-3.582-8-8v-56c0-4.418 3.582-8 8-8h56c4.418 0 8 3.582 8 8v56z"/><g fill="#fff"><path d="M56.301 29.865c-.004 3.711-2.98 6.657-6.7 6.634-3.718-.023-6.662-2.988-6.65-6.699.012-3.687 3.022-6.668 6.715-6.651 3.699.018 6.639 2.994 6.635 6.716zM49.584 48.848c-2.048 0-4.095.004-6.143-.001-.984-.002-1.164-.183-1.157-1.168.013-1.66-.125-3.325.529-4.929 1.325-3.25 4.686-5.267 7.902-4.689 3.527.634 6.17 3.669 6.271 7.22.024.833.007 1.667.004 2.5-.003.838-.206 1.06-1.05 1.064-2.118.01-4.237.003-6.356.003zM34.556 37.715c-3.306-.003-6.025-2.718-6.002-5.995.023-3.332 2.739-6.006 6.09-5.997 3.316.009 5.978 2.69 5.971 6.012-.008 3.371-2.656 5.984-6.059 5.98zM34.611 48.801c-1.905 0-3.809-.015-5.714.008-.676.008-.94-.26-.925-.935.034-1.589-.113-3.189.563-4.707 1.305-2.931 4.304-4.583 7.303-3.993 3.027.596 5.325 3.409 5.394 6.613.015.69.009 1.381.001 2.071-.009.806-.147.94-.979.942-1.882.004-3.762.001-5.643.001zM26.382 33.444c.001 2.998-2.396 5.389-5.405 5.392-3.006.003-5.431-2.39-5.442-5.37-.011-2.999 2.467-5.475 5.455-5.452 2.995.022 5.391 2.435 5.392 5.43zM20.943 48.801c-1.668 0-3.337-.019-5.005.01-.664.011-.956-.204-.937-.903.039-1.495-.087-2.994.618-4.408 1.277-2.562 3.933-3.922 6.617-3.331 2.591.571 4.617 3.065 4.692 5.792.018.667-.019 1.335.009 2.002.026.617-.235.854-.846.847-1.716-.023-3.432-.01-5.148-.009z"/></g></svg>