<svg xmlns="http://www.w3.org/2000/svg" xmlns:v="http://vecta.io" xmlns:xlink="http://www.w3.org/1999/xlink"  viewBox="0 0 65 65" stroke="#000" stroke-linecap="round" stroke-linejoin="round" fill="#fff" fill-rule="evenodd" font-family="Roboto" font-size="14px" text-anchor="middle"><g><title>payoneer-icon</title><use xlink:href="#SSFB5443jMcSj6zfeO7fkU.sym" x="0.5" y="0.5"/></g><symbol id="SSFB5443jMcSj6zfeO7fkU.sym" overflow="visible" v:tags="payoneer, logo"><title>payoneer-icon</title><g id="juhn1t9sj7f" class="Group.cls" transform="translate(0 0)" v:abox="{&quot;x&quot;:0,&quot;y&quot;:0,&quot;width&quot;:64,&quot;height&quot;:64}" v:size="65,65,0.5,0.5"><g class="Prim.cls"><g id="juhn1t9mj7b" transform="translate(0 0)" class=""><path d="M 64 52.8000030517578 C 64 59 59 64 52.7999877929688 64 L 11.2000122070313 64 C 5 64 0 59 0 52.8000030517578 L 0 11.1999969482422 C 0 5 5 0 11.2000122070313 0 L 52.7999877929688 0 C 59 0 64 5 64 11.1999969482422 Z" stroke="none" fill="#ff4800"/></g><g id="juhn1t9oj7c" transform="translate(10.926761398756788 13.074453769059161)" class=""><path d="M 2.976253737962 3.7255492826987 C 3.1362268824932 7.395547451644 6.310238112962 21.4055419584799 6.310238112962 21.4055419584799 C 7.4802515406963 24.2425475737143 8.4742395778057 21.4055419584799 8.4742395778057 21.4055419584799 C 12.320247878587 9.8975463530112 4.4672510524151 3.229547085433 4.4672510524151 3.229547085433 C 2.477230300462 2.0595489164877 2.9752466578838 3.7265487333822 2.9752466578838 3.7265487333822 M 48.4952356715557 1.7235503813315 C 48.4952356715557 1.7235503813315 52.341243972337 4.3995452543783 48.4952356715557 4.8965469023276 C 48.4952356715557 4.8965469023276 34.1502344508526 6.5635467192221 23.4752466578838 16.5665450712729 C 23.4752466578838 16.5665450712729 7.4782373805401 30.5765472075033 1.4682276149151 45.9145446440268 C 1.4682276149151 45.9145446440268 -0.5347631077412 45.9145446440268 0.1382410426495 42.916543545394 C 0.8112451930401 39.9185424467612 4.8032495875713 26.7415481230307 22.643245925462 10.5695434233237 C 22.643245925462 10.5695434233237 39.8252527613995 -5.1054519990396 48.4962427516338 1.7225433012533" stroke="none"/></g></g></g></symbol></svg>