<svg baseProfile="tiny" xmlns="http://www.w3.org/2000/svg" viewBox="0 0 72 72"><path fill="#f80" d="M72 64c0 4.418-3.582 8-8 8h-56c-4.418 0-8-3.582-8-8v-56c0-4.418 3.582-8 8-8h56c4.418 0 8 3.582 8 8v56z"/><path fill="#fff" d="M52.327 33.72c-.777 0-1.519.15-2.194.423-.451-4.915-4.74-8.768-9.969-8.768-1.281 0-2.522.242-3.624.651-.427.16-.54.324-.54.641v17.306c0 .333.269.611.607.644l15.721.008c3.134 0 5.672-2.443 5.672-5.452 0-3.01-2.541-5.453-5.673-5.453zm-21.14 10.905h1.375l.688-9.634-.688-9.616h-1.375l-.687 9.616.687 9.634zm-4.125 0h-1.375l-.687-6.993.688-6.757h1.375l.688 6.875-.689 6.875zm-6.875 0h1.375l.688-5.5-.688-5.5h-1.375l-.688 5.5.688 5.5zm-5.5-2.75h1.375l.688-2.75-.688-2.75h-1.375l-.687 2.75.687 2.75z"/></svg>