<svg baseProfile="tiny" xmlns="http://www.w3.org/2000/svg" viewBox="0 0 72 72"><path fill="#32506D" d="M72 64c0 4.418-3.582 8-8 8h-56c-4.418 0-8-3.582-8-8v-56c0-4.418 3.582-8 8-8h56c4.418 0 8 3.582 8 8v56z"/><path fill="#fff" d="M38.622 33.375v9.605c0 2.437-.031 3.841.227 4.532.256.687.899 1.4 1.599 1.814.931.556 1.991.834 3.188.834 2.126 0 3.382-.281 5.485-1.661v6.313c-1.793.843-3.358 1.337-4.812 1.679-1.456.339-3.029.509-4.72.509-1.921 0-3.054-.241-4.528-.724-1.475-.487-2.735-1.182-3.775-2.073-1.043-.9-1.764-1.855-2.169-2.866-.403-1.009-.602-2.476-.602-4.398v-14.728h-5.637v-5.947c1.65-.536 3.493-1.305 4.667-2.303 1.179-1.004 2.123-2.202 2.834-3.607.714-1.401 1.204-3.188 1.471-5.354h6.771v10.5h10.499v7.875h-10.498z"/></svg>