<svg baseProfile="tiny" xmlns="http://www.w3.org/2000/svg" viewBox="0 0 72 72"><path fill="#AAD450" d="M72 64c0 4.418-3.582 8-8 8h-56c-4.418 0-8-3.582-8-8v-56c0-4.418 3.582-8 8-8h56c4.418 0 8 3.582 8 8v56z"/><path fill="#fff" d="M15 27.648l1.706 2.237s3.518-2.774 4.691-1.385c1.172 1.385 5.649 18.126 7.144 21.215 1.303 2.707 4.901 6.288 8.846 3.731 3.943-2.557 17.056-13.753 19.403-26.972 2.346-13.217-15.779-10.447-17.698 1.066 4.798-2.881 7.359 1.172 4.904 5.758-2.451 4.582-4.691 7.572-5.863 7.572-1.17 0-2.071-3.067-3.412-8.426-1.387-5.542-1.379-15.523-7.142-14.391-5.435 1.064-12.579 9.595-12.579 9.595z"/></svg>